<svg width="21" height="47" viewBox="0 0 21 47" fill="none" xmlns="http://www.w3.org/2000/svg">
<path d="M17.1532 7.63422C16.2358 7.00677 15.6605 6.1678 15.2005 4.87593C15.0295 4.39569 14.6029 4.08518 14.1137 4.08518C13.5878 4.08518 13.1069 4.4243 12.7945 5.01543C12.6191 5.34201 12.5113 5.7006 12.4775 6.06976C12.1535 5.47895 11.4952 5.35327 11.1831 5.7734C11.1831 5.7734 8.61605 3.82192 7.74044 3.20057C6.57682 2.37575 5.03551 3.28929 5.07408 4.23272C3.60477 3.43619 1.99177 4.8425 2.48872 6.31631C1.92041 6.21216 0.466849 7.71876 1.99499 8.87596C0.936476 8.9846 0.525352 10.642 1.75551 11.3964C1.75551 11.3964 1.7613 11.6256 1.77769 11.7381C0.967013 11.9843 0.687358 13.5169 1.47136 14.0007C1.47136 14.0007 7.12552 17.6111 9.07186 18.6973C10.1294 19.2875 11.9504 19.5192 13.5727 18.9924C15.1481 18.8291 16.4846 17.994 17.5586 16.5057C20.5142 12.4099 18.1728 8.33175 17.1532 7.63422ZM16.807 16.1065C15.5762 17.8358 13.8086 18.0152 12.456 18.0152C10.248 18.0152 8.89924 16.9567 8.89924 16.9567L2.83941 12.4321C1.69219 11.64 2.38297 10.3781 3.18786 10.4012L8.00853 13.686L8.60191 13.723C8.60191 13.723 4.29619 10.632 2.9021 9.54391C2.0882 8.90874 2.35564 7.69562 3.40933 7.45454L9.4383 11.7824L10.031 11.8194L3.59095 6.82483C2.23028 5.83029 3.59577 3.955 4.91497 4.91C6.43635 6.01126 11.0134 9.5018 11.0134 9.5018L11.6067 9.53909L5.58132 4.54806C5.52924 3.77788 6.55368 3.10832 7.37271 3.72099C9.01978 4.95307 13.9636 8.64548 13.9636 8.64548C13.8363 8.289 13.7726 8.02092 13.7726 8.02092C13.7726 8.02092 12.8334 6.45935 13.3422 5.32241C13.789 4.3253 14.6929 4.48731 14.8752 5.02315C15.3596 6.44971 15.8614 7.29639 16.8652 8.00999C18.1471 8.92128 19.458 12.3832 16.807 16.1065Z" fill="black"/>
<path d="M14.5129 0.285762L11.7453 0L12.6897 3.94088L14.5129 0.285762Z" fill="black"/>
<path d="M16.8029 1.04919L15.3965 4.32565L18.6769 3.44683L16.8029 1.04919Z" fill="black"/>
<path d="M9.07092 0.49794L7.07477 2.1479L9.94975 4.02127L9.07092 0.49794Z" fill="black"/>
<path d="M3.4043 42.2864V33.5227C3.24479 33.6595 3.06478 33.7916 2.86426 33.9192C2.66829 34.0468 2.46549 34.1676 2.25586 34.2815C2.05078 34.3909 1.84342 34.4912 1.63379 34.5823C1.42871 34.6689 1.2373 34.7418 1.05957 34.8011V34.0286C1.59733 33.8554 2.11003 33.6184 2.59766 33.3177C3.08984 33.0123 3.56608 32.6614 4.02637 32.2649H4.2793V42.2864H3.4043ZM11.1494 34.9993C11.1494 34.6894 11.1016 34.416 11.0059 34.179C10.9147 33.9374 10.7848 33.7369 10.6162 33.5774C10.4476 33.4134 10.2448 33.2903 10.0078 33.2083C9.77083 33.1263 9.50879 33.0852 9.22168 33.0852C8.78418 33.0852 8.36263 33.1901 7.95703 33.3997C7.55599 33.6048 7.17773 33.8805 6.82227 34.2268V33.2561C7.16862 32.9599 7.54688 32.7298 7.95703 32.5657C8.36719 32.4016 8.82975 32.3196 9.34473 32.3196C9.42676 32.3196 9.50423 32.3242 9.57715 32.3333C9.65462 32.3424 9.72982 32.3561 9.80273 32.3743C10.14 32.4108 10.4453 32.4973 10.7188 32.6341C10.9967 32.7662 11.2337 32.9394 11.4297 33.1536C11.6257 33.3678 11.776 33.623 11.8809 33.9192C11.9902 34.2109 12.0449 34.5367 12.0449 34.8968C12.0449 35.316 11.9902 35.692 11.8809 36.0247C11.7715 36.3574 11.6143 36.665 11.4092 36.9475C11.2087 37.2255 10.9648 37.4899 10.6777 37.7405C10.3952 37.9866 10.0785 38.235 9.72754 38.4856C9.33561 38.7682 8.99837 39.0188 8.71582 39.2376C8.43783 39.4518 8.2054 39.6569 8.01855 39.8528C7.83626 40.0488 7.69727 40.2447 7.60156 40.4407C7.50586 40.6367 7.44434 40.8554 7.41699 41.097C7.39421 41.1608 7.37826 41.2246 7.36914 41.2884C7.36458 41.3522 7.3623 41.4228 7.3623 41.5003H12.2432V42.2864H6.43945V41.8147C6.43945 41.3772 6.48958 40.999 6.58984 40.68C6.69466 40.3564 6.85645 40.0556 7.0752 39.7776C7.29395 39.4951 7.57422 39.2148 7.91602 38.9368C8.25781 38.6588 8.66797 38.3466 9.14648 38.0003C9.47005 37.7633 9.75716 37.5354 10.0078 37.3167C10.2585 37.0934 10.4681 36.8655 10.6367 36.6331C10.8053 36.3961 10.9329 36.1455 11.0195 35.8811C11.1061 35.6168 11.1494 35.3229 11.1494 34.9993ZM14.2188 41.1106C14.8704 41.5026 15.5221 41.6985 16.1738 41.6985C16.5475 41.6985 16.8848 41.6438 17.1855 41.5345C17.4863 41.4251 17.7415 41.2701 17.9512 41.0696C18.1654 40.8691 18.3294 40.6276 18.4434 40.345C18.5573 40.0624 18.6143 39.7503 18.6143 39.4085C18.6143 38.6884 18.3932 38.1393 17.9512 37.761C17.5091 37.3828 16.8574 37.1936 15.9961 37.1936C15.6497 37.1936 15.153 37.221 14.5059 37.2757L14.8066 32.4837H19.0791V33.2766H15.5518L15.3467 36.4554C15.7432 36.428 16.0576 36.4143 16.29 36.4143C16.8096 36.4143 17.2676 36.4827 17.6641 36.6194C18.0651 36.7516 18.4023 36.943 18.6758 37.1936C18.9492 37.4443 19.1566 37.7496 19.2979 38.1096C19.4391 38.4697 19.5098 38.8776 19.5098 39.3333C19.5098 39.7981 19.4346 40.222 19.2842 40.6048C19.1338 40.9876 18.915 41.3157 18.6279 41.5891C18.3408 41.8626 17.9876 42.0745 17.5684 42.2249C17.1491 42.3753 16.6729 42.4505 16.1396 42.4505C15.333 42.4505 14.6927 42.3229 14.2188 42.0677V41.1106Z" fill="black"/>
</svg>
