<svg width="16" height="47" viewBox="0 0 16 47" fill="none" xmlns="http://www.w3.org/2000/svg">
<path d="M0 2.78645C0 2.1234 0.263396 1.4875 0.732245 1.01865C1.20109 0.549804 1.83699 0.286407 2.50004 0.286407L12.5002 0.286407C13.1633 0.286407 13.7991 0.549804 14.268 1.01865C14.7368 1.4875 15.0002 2.1234 15.0002 2.78645V19.6617C15.0002 19.7748 14.9695 19.8857 14.9113 19.9827C14.8532 20.0796 14.7699 20.159 14.6702 20.2124C14.5706 20.2658 14.4583 20.2911 14.3454 20.2857C14.2324 20.2803 14.1231 20.2444 14.029 20.1817L7.50012 16.6629L0.971266 20.1817C0.877146 20.2444 0.7678 20.2803 0.654875 20.2857C0.541949 20.2911 0.429673 20.2658 0.330005 20.2124C0.230336 20.159 0.147007 20.0796 0.088894 19.9827C0.0307805 19.8857 5.84015e-05 19.7748 0 19.6617V2.78645ZM2.50004 1.53643C2.16851 1.53643 1.85057 1.66813 1.61614 1.90255C1.38172 2.13697 1.25002 2.45492 1.25002 2.78645V18.4942L7.15387 15.3917C7.25644 15.3234 7.37691 15.287 7.50012 15.287C7.62333 15.287 7.7438 15.3234 7.84638 15.3917L13.7502 18.4942V2.78645C13.7502 2.45492 13.6185 2.13697 13.3841 1.90255C13.1497 1.66813 12.8317 1.53643 12.5002 1.53643H2.50004Z" fill="black"/>
<path d="M6.31836 33.1973V39.7734H7.84961V40.5664H6.31836V43H5.4502V40.5664H0.808594V39.7734C1.24154 39.2812 1.67904 38.7572 2.12109 38.2012C2.56771 37.6406 2.99382 37.0732 3.39941 36.499C3.80501 35.9202 4.17871 35.3506 4.52051 34.79C4.8623 34.2249 5.14941 33.694 5.38184 33.1973H6.31836ZM5.4502 39.7734V34.5986C5.11296 35.182 4.77799 35.7266 4.44531 36.2324C4.11263 36.7337 3.78906 37.2008 3.47461 37.6338C3.16471 38.0622 2.86621 38.4541 2.5791 38.8096C2.29655 39.165 2.03678 39.4863 1.7998 39.7734H5.4502ZM14.959 39.8896C14.959 40.3682 14.8838 40.8079 14.7334 41.209C14.5876 41.61 14.3802 41.9564 14.1113 42.248C13.847 42.5352 13.5303 42.7607 13.1611 42.9248C12.7965 43.0889 12.3955 43.1709 11.958 43.1709C11.484 43.1709 11.0602 43.0729 10.6865 42.877C10.3174 42.6764 10.0029 42.3848 9.74316 42.002C9.48796 41.6191 9.29199 41.1497 9.15527 40.5938C9.01855 40.0378 8.9502 39.4043 8.9502 38.6934C8.9502 37.8411 9.03906 37.0664 9.2168 36.3691C9.39909 35.6719 9.65885 35.0771 9.99609 34.585C10.3333 34.0882 10.7412 33.7054 11.2197 33.4365C11.7028 33.1676 12.2474 33.0332 12.8535 33.0332C13.4596 33.0332 13.9678 33.1198 14.3779 33.293V34.1611C13.8994 33.9196 13.3936 33.7988 12.8604 33.7988C12.4001 33.7988 11.9831 33.9082 11.6094 34.127C11.2402 34.3411 10.9258 34.6465 10.666 35.043C10.4062 35.4395 10.2057 35.9157 10.0645 36.4717C9.92318 37.0231 9.85254 37.6338 9.85254 38.3037H9.87988C10.3493 37.3467 11.1309 36.8682 12.2246 36.8682C12.6393 36.8682 13.013 36.9434 13.3457 37.0938C13.6829 37.2441 13.9701 37.4538 14.207 37.7227C14.4486 37.9915 14.6331 38.3105 14.7607 38.6797C14.8929 39.0488 14.959 39.4521 14.959 39.8896ZM14.0566 40.0264C14.0566 39.6663 14.0088 39.3382 13.9131 39.042C13.8219 38.7458 13.6898 38.4951 13.5166 38.29C13.3434 38.0804 13.1315 37.9186 12.8809 37.8047C12.6302 37.6908 12.3454 37.6338 12.0264 37.6338C11.7256 37.6338 11.4453 37.693 11.1855 37.8115C10.9303 37.93 10.7093 38.0895 10.5225 38.29C10.3356 38.4906 10.1898 38.7207 10.085 38.9805C9.98014 39.2402 9.92773 39.5114 9.92773 39.7939C9.92773 40.1494 9.97786 40.4867 10.0781 40.8057C10.1784 41.1201 10.3197 41.3958 10.502 41.6328C10.6842 41.8698 10.903 42.0589 11.1582 42.2002C11.4134 42.3369 11.696 42.4053 12.0059 42.4053C12.3066 42.4053 12.5824 42.346 12.833 42.2275C13.0837 42.109 13.2979 41.945 13.4756 41.7354C13.6579 41.5212 13.7992 41.2705 13.8994 40.9834C14.0042 40.6917 14.0566 40.3727 14.0566 40.0264Z" fill="black"/>
</svg>
